<svg width="51" height="51" viewBox="0 0 51 51" fill="none" xmlns="http://www.w3.org/2000/svg">
<path d="M18.9713 18.6165V32.2135C18.9713 33.1878 19.4139 33.929 20.2992 34.4373C21.1846 34.9456 22.0488 34.9033 22.892 34.3102L33.3894 27.5753C34.1904 27.067 34.5909 26.3469 34.5909 25.415C34.5909 24.4831 34.1904 23.763 33.3894 23.2547L22.892 16.5198C22.0488 15.9267 21.1846 15.8844 20.2992 16.3927C19.4139 16.901 18.9713 17.6422 18.9713 18.6165ZM25.295 50.83C21.7959 50.83 18.5075 50.1624 15.43 48.8273C12.3524 47.4939 9.67534 45.6835 7.39879 43.3961C5.12224 41.1088 3.32039 38.419 1.99325 35.3269C0.664416 32.2347 0 28.9307 0 25.415C0 21.8993 0.664416 18.5953 1.99325 15.5032C3.32039 12.411 5.12224 9.72124 7.39879 7.43389C9.67534 5.14654 12.3524 3.3353 15.43 2.00016C18.5075 0.66672 21.7959 0 25.295 0C28.7941 0 32.0825 0.66672 35.16 2.00016C38.2376 3.3353 40.9147 5.14654 43.1912 7.43389C45.4678 9.72124 47.2696 12.411 48.5968 15.5032C49.9256 18.5953 50.59 21.8993 50.59 25.415C50.59 28.9307 49.9256 32.2347 48.5968 35.3269C47.2696 38.419 45.4678 41.1088 43.1912 43.3961C40.9147 45.6835 38.2376 47.4939 35.16 48.8273C32.0825 50.1624 28.7941 50.83 25.295 50.83Z" fill="black"/>
</svg>
